<svg xmlns="http://www.w3.org/2000/svg" xmlns:xlink="http://www.w3.org/1999/xlink" width="500" zoomAndPan="magnify" viewBox="0 0 375 374.999991" height="500" preserveAspectRatio="xMidYMid meet" version="1.0"><defs><g/><clipPath id="ded4103e09"><path d="M 92.167969 221.066406 L 187.5 221.066406 L 187.5 226.597656 L 92.167969 226.597656 Z M 92.167969 221.066406 " clip-rule="nonzero"/></clipPath></defs><g fill="#2e2e2e" fill-opacity="1"><g transform="translate(88.870688, 211.735224)"><g><path d="M 57.625 0 L 35.046875 0 C 29.546875 0 24.453125 -1.40625 19.765625 -4.21875 C 15.023438 -7.03125 11.3125 -10.78125 8.625 -15.46875 C 5.875 -20.144531 4.5 -25.265625 4.5 -30.828125 C 4.5 -36.390625 5.875 -41.578125 8.625 -46.390625 C 11.4375 -51.128906 15.179688 -54.875 19.859375 -57.625 C 24.484375 -60.3125 29.546875 -61.65625 35.046875 -61.65625 C 39.296875 -61.65625 43.414062 -60.78125 47.40625 -59.03125 C 51.34375 -57.28125 54.75 -54.8125 57.625 -51.625 L 51.8125 -46.390625 C 49.75 -48.753906 47.253906 -50.59375 44.328125 -51.90625 C 41.390625 -53.15625 38.296875 -53.78125 35.046875 -53.78125 C 30.859375 -53.78125 27.046875 -52.75 23.609375 -50.6875 C 20.109375 -48.625 17.363281 -45.847656 15.375 -42.359375 C 13.3125 -38.796875 12.28125 -34.953125 12.28125 -30.828125 C 12.28125 -26.640625 13.3125 -22.796875 15.375 -19.296875 C 17.363281 -15.742188 20.109375 -12.9375 23.609375 -10.875 C 27.109375 -8.8125 30.921875 -7.78125 35.046875 -7.78125 L 49.75 -7.78125 L 49.75 -24.453125 L 32.984375 -24.453125 L 32.984375 -32.234375 L 57.625 -32.234375 Z M 57.625 0 "/></g></g></g><g fill="#2e2e2e" fill-opacity="1"><g transform="translate(146.404059, 211.735224)"><g><path d="M 60.4375 0 L 49.46875 0 L 43.671875 -5.71875 C 38.359375 -1.53125 33.515625 0.5625 29.140625 0.5625 C 25.453125 0.5625 22.078125 -0.21875 19.015625 -1.78125 C 15.898438 -3.28125 13.40625 -5.34375 11.53125 -7.96875 C 9.71875 -10.65625 8.8125 -13.523438 8.8125 -16.578125 C 8.8125 -21.828125 10.78125 -25.984375 14.71875 -29.046875 C 16.457031 -30.234375 17.703125 -31.046875 18.453125 -31.484375 C 14.398438 -35.546875 12.375 -40.140625 12.375 -45.265625 C 12.375 -47.441406 12.8125 -49.53125 13.6875 -51.53125 C 14.5625 -53.53125 15.804688 -55.28125 17.421875 -56.78125 C 18.921875 -58.28125 20.703125 -59.4375 22.765625 -60.25 C 24.828125 -61 27.015625 -61.375 29.328125 -61.375 C 34.203125 -61.375 38.171875 -59.84375 41.234375 -56.78125 C 42.859375 -55.28125 44.109375 -53.53125 44.984375 -51.53125 C 45.859375 -49.53125 46.296875 -47.441406 46.296875 -45.265625 C 46.296875 -43.140625 45.734375 -41.078125 44.609375 -39.078125 C 43.484375 -37.078125 41.859375 -35.265625 39.734375 -33.640625 L 34.203125 -39.265625 C 35.515625 -40.203125 36.578125 -41.203125 37.390625 -42.265625 C 38.140625 -43.328125 38.515625 -44.328125 38.515625 -45.265625 C 38.515625 -47.566406 37.609375 -49.53125 35.796875 -51.15625 C 33.984375 -52.78125 31.828125 -53.59375 29.328125 -53.59375 C 26.765625 -53.59375 24.609375 -52.78125 22.859375 -51.15625 C 21.046875 -49.53125 20.140625 -47.566406 20.140625 -45.265625 C 20.140625 -42.453125 21.453125 -39.640625 24.078125 -36.828125 Z M 38.234375 -11.34375 L 24.078125 -25.671875 C 21.328125 -24.296875 19.390625 -22.953125 18.265625 -21.640625 C 17.140625 -20.328125 16.578125 -18.640625 16.578125 -16.578125 C 16.578125 -14.023438 17.796875 -11.84375 20.234375 -10.03125 C 22.671875 -8.21875 25.640625 -7.3125 29.140625 -7.3125 C 31.390625 -7.3125 34.421875 -8.65625 38.234375 -11.34375 Z M 61.09375 -19.765625 L 59.3125 -18.359375 C 58.375 -17.484375 57.5 -16.765625 56.6875 -16.203125 L 51.25 -21.828125 L 53.5 -23.609375 C 54 -24.109375 54.71875 -24.703125 55.65625 -25.390625 Z M 61.09375 -19.765625 "/></g></g></g><g fill="#2e2e2e" fill-opacity="1"><g transform="translate(207.123339, 211.735224)"><g><path d="M 63.15625 -38.984375 L 39.640625 -8.4375 L 16.015625 -39.078125 L 16.015625 0 L 8.0625 0 L 8.0625 -61.9375 L 39.640625 -21.265625 L 70.9375 -61.9375 L 70.9375 0 L 63.15625 0 Z M 63.15625 -38.984375 "/></g></g></g><g clip-path="url(#ded4103e09)"><path fill="#2e2e2e" d="M 92.167969 221.066406 L 187.492188 221.066406 L 187.492188 226.597656 L 92.167969 226.597656 Z M 92.167969 221.066406 " fill-opacity="1" fill-rule="nonzero"/></g><g fill="#2e2e2e" fill-opacity="1"><g transform="translate(193.774978, 226.635395)"><g><path d="M 3.296875 0.109375 C 2.722656 0.109375 2.210938 -0.015625 1.765625 -0.265625 C 1.328125 -0.515625 0.976562 -0.859375 0.71875 -1.296875 C 0.46875 -1.734375 0.34375 -2.238281 0.34375 -2.8125 C 0.34375 -3.382812 0.46875 -3.890625 0.71875 -4.328125 C 0.96875 -4.773438 1.3125 -5.125 1.75 -5.375 C 2.195312 -5.625 2.707031 -5.75 3.28125 -5.75 C 3.726562 -5.75 4.144531 -5.664062 4.53125 -5.5 C 4.925781 -5.34375 5.257812 -5.117188 5.53125 -4.828125 C 5.800781 -4.535156 5.988281 -4.191406 6.09375 -3.796875 L 4.71875 -3.796875 C 4.582031 -4.035156 4.390625 -4.222656 4.140625 -4.359375 C 3.898438 -4.503906 3.617188 -4.578125 3.296875 -4.578125 C 2.972656 -4.578125 2.679688 -4.5 2.421875 -4.34375 C 2.171875 -4.195312 1.972656 -3.988281 1.828125 -3.71875 C 1.691406 -3.457031 1.625 -3.15625 1.625 -2.8125 C 1.625 -2.476562 1.691406 -2.175781 1.828125 -1.90625 C 1.972656 -1.644531 2.171875 -1.4375 2.421875 -1.28125 C 2.671875 -1.132812 2.96875 -1.0625 3.3125 -1.0625 C 3.726562 -1.0625 4.070312 -1.164062 4.34375 -1.375 C 4.613281 -1.582031 4.789062 -1.859375 4.875 -2.203125 L 3.046875 -2.203125 L 3.046875 -3.1875 L 6.234375 -3.1875 C 6.265625 -2.707031 6.210938 -2.265625 6.078125 -1.859375 C 5.953125 -1.460938 5.757812 -1.113281 5.5 -0.8125 C 5.25 -0.519531 4.9375 -0.289062 4.5625 -0.125 C 4.1875 0.03125 3.765625 0.109375 3.296875 0.109375 Z M 3.296875 0.109375 "/></g></g></g><g fill="#2e2e2e" fill-opacity="1"><g transform="translate(202.291266, 226.635395)"><g><path d="M 0.671875 0 L 0.671875 -5.625 L 4.375 -5.625 L 4.375 -4.546875 L 1.953125 -4.546875 L 1.953125 -3.390625 L 4.15625 -3.390625 L 4.15625 -2.3125 L 1.953125 -2.3125 L 1.953125 -1.09375 L 4.46875 -1.09375 L 4.46875 0 Z M 0.671875 0 "/></g></g></g><g fill="#2e2e2e" fill-opacity="1"><g transform="translate(209.118768, 226.635395)"><g><path d="M 0.671875 0 L 0.671875 -5.625 L 1.765625 -5.625 L 4.25 -2.203125 L 4.25 -5.625 L 5.515625 -5.625 L 5.515625 0 L 4.4375 0 L 1.953125 -3.453125 L 1.953125 0 Z M 0.671875 0 "/></g></g></g><g fill="#2e2e2e" fill-opacity="1"><g transform="translate(217.265134, 226.635395)"><g><path d="M 0.671875 0 L 0.671875 -5.625 L 4.375 -5.625 L 4.375 -4.546875 L 1.953125 -4.546875 L 1.953125 -3.390625 L 4.15625 -3.390625 L 4.15625 -2.3125 L 1.953125 -2.3125 L 1.953125 -1.09375 L 4.46875 -1.09375 L 4.46875 0 Z M 0.671875 0 "/></g></g></g><g fill="#2e2e2e" fill-opacity="1"><g transform="translate(224.092636, 226.635395)"><g><path d="M 0.671875 0 L 0.671875 -5.625 L 3.078125 -5.625 C 3.503906 -5.625 3.875 -5.546875 4.1875 -5.390625 C 4.507812 -5.242188 4.753906 -5.023438 4.921875 -4.734375 C 5.097656 -4.441406 5.1875 -4.09375 5.1875 -3.6875 C 5.1875 -3.28125 5.09375 -2.925781 4.90625 -2.625 C 4.71875 -2.332031 4.457031 -2.109375 4.125 -1.953125 L 5.28125 0 L 3.8125 0 L 2.796875 -1.75 L 1.953125 -1.75 L 1.953125 0 Z M 1.9375 -2.828125 L 2.90625 -2.828125 C 3.226562 -2.828125 3.472656 -2.898438 3.640625 -3.046875 C 3.804688 -3.203125 3.890625 -3.414062 3.890625 -3.6875 C 3.890625 -3.957031 3.804688 -4.164062 3.640625 -4.3125 C 3.472656 -4.457031 3.226562 -4.53125 2.90625 -4.53125 L 1.9375 -4.53125 Z M 1.9375 -2.828125 "/></g></g></g><g fill="#2e2e2e" fill-opacity="1"><g transform="translate(231.708239, 226.635395)"><g><path d="M 0.078125 0 L 2.3125 -5.625 L 3.5625 -5.625 L 5.796875 0 L 4.4375 0 L 4.0625 -0.96875 L 1.8125 -0.96875 L 1.4375 0 Z M 2.15625 -1.984375 L 3.734375 -1.984375 L 2.9375 -4.046875 Z M 2.15625 -1.984375 "/></g></g></g><g fill="#2e2e2e" fill-opacity="1"><g transform="translate(239.532926, 226.635395)"><g><path d="M 2.03125 0 L 2.03125 -4.4375 L 0.234375 -4.4375 L 0.234375 -5.625 L 5.09375 -5.625 L 5.09375 -4.4375 L 3.3125 -4.4375 L 3.3125 0 Z M 2.03125 0 "/></g></g></g><g fill="#2e2e2e" fill-opacity="1"><g transform="translate(246.818813, 226.635395)"><g><path d="M 0.671875 0 L 0.671875 -5.625 L 1.953125 -5.625 L 1.953125 0 Z M 0.671875 0 "/></g></g></g><g fill="#2e2e2e" fill-opacity="1"><g transform="translate(251.402644, 226.635395)"><g><path d="M 3.34375 0.109375 C 2.757812 0.109375 2.238281 -0.015625 1.78125 -0.265625 C 1.332031 -0.515625 0.976562 -0.859375 0.71875 -1.296875 C 0.46875 -1.734375 0.34375 -2.238281 0.34375 -2.8125 C 0.34375 -3.382812 0.46875 -3.890625 0.71875 -4.328125 C 0.976562 -4.773438 1.332031 -5.125 1.78125 -5.375 C 2.238281 -5.625 2.757812 -5.75 3.34375 -5.75 C 3.9375 -5.75 4.457031 -5.625 4.90625 -5.375 C 5.351562 -5.125 5.707031 -4.773438 5.96875 -4.328125 C 6.226562 -3.890625 6.359375 -3.382812 6.359375 -2.8125 C 6.359375 -2.238281 6.226562 -1.734375 5.96875 -1.296875 C 5.707031 -0.859375 5.351562 -0.515625 4.90625 -0.265625 C 4.457031 -0.015625 3.9375 0.109375 3.34375 0.109375 Z M 1.65625 -2.8125 C 1.65625 -2.476562 1.722656 -2.179688 1.859375 -1.921875 C 2.003906 -1.660156 2.203125 -1.457031 2.453125 -1.3125 C 2.710938 -1.175781 3.007812 -1.109375 3.34375 -1.109375 C 3.6875 -1.109375 3.984375 -1.175781 4.234375 -1.3125 C 4.492188 -1.457031 4.691406 -1.660156 4.828125 -1.921875 C 4.972656 -2.179688 5.046875 -2.476562 5.046875 -2.8125 C 5.046875 -3.15625 4.972656 -3.453125 4.828125 -3.703125 C 4.691406 -3.960938 4.492188 -4.164062 4.234375 -4.3125 C 3.984375 -4.457031 3.6875 -4.53125 3.34375 -4.53125 C 3.007812 -4.53125 2.710938 -4.457031 2.453125 -4.3125 C 2.203125 -4.164062 2.003906 -3.960938 1.859375 -3.703125 C 1.722656 -3.453125 1.65625 -3.15625 1.65625 -2.8125 Z M 1.65625 -2.8125 "/></g></g></g><g fill="#2e2e2e" fill-opacity="1"><g transform="translate(260.055639, 226.635395)"><g><path d="M 0.671875 0 L 0.671875 -5.625 L 1.765625 -5.625 L 4.25 -2.203125 L 4.25 -5.625 L 5.515625 -5.625 L 5.515625 0 L 4.4375 0 L 1.953125 -3.453125 L 1.953125 0 Z M 0.671875 0 "/></g></g></g><g fill="#2e2e2e" fill-opacity="1"><g transform="translate(268.202004, 226.635395)"><g/></g></g><g fill="#2e2e2e" fill-opacity="1"><g transform="translate(272.045989, 226.635395)"><g><path d="M 3.34375 0.109375 C 2.757812 0.109375 2.238281 -0.015625 1.78125 -0.265625 C 1.332031 -0.515625 0.976562 -0.859375 0.71875 -1.296875 C 0.46875 -1.734375 0.34375 -2.238281 0.34375 -2.8125 C 0.34375 -3.382812 0.46875 -3.890625 0.71875 -4.328125 C 0.976562 -4.773438 1.332031 -5.125 1.78125 -5.375 C 2.238281 -5.625 2.757812 -5.75 3.34375 -5.75 C 3.9375 -5.75 4.457031 -5.625 4.90625 -5.375 C 5.351562 -5.125 5.707031 -4.773438 5.96875 -4.328125 C 6.226562 -3.890625 6.359375 -3.382812 6.359375 -2.8125 C 6.359375 -2.238281 6.226562 -1.734375 5.96875 -1.296875 C 5.707031 -0.859375 5.351562 -0.515625 4.90625 -0.265625 C 4.457031 -0.015625 3.9375 0.109375 3.34375 0.109375 Z M 1.65625 -2.8125 C 1.65625 -2.476562 1.722656 -2.179688 1.859375 -1.921875 C 2.003906 -1.660156 2.203125 -1.457031 2.453125 -1.3125 C 2.710938 -1.175781 3.007812 -1.109375 3.34375 -1.109375 C 3.6875 -1.109375 3.984375 -1.175781 4.234375 -1.3125 C 4.492188 -1.457031 4.691406 -1.660156 4.828125 -1.921875 C 4.972656 -2.179688 5.046875 -2.476562 5.046875 -2.8125 C 5.046875 -3.15625 4.972656 -3.453125 4.828125 -3.703125 C 4.691406 -3.960938 4.492188 -4.164062 4.234375 -4.3125 C 3.984375 -4.457031 3.6875 -4.53125 3.34375 -4.53125 C 3.007812 -4.53125 2.710938 -4.457031 2.453125 -4.3125 C 2.203125 -4.164062 2.003906 -3.960938 1.859375 -3.703125 C 1.722656 -3.453125 1.65625 -3.15625 1.65625 -2.8125 Z M 1.65625 -2.8125 "/></g></g></g><g fill="#2e2e2e" fill-opacity="1"><g transform="translate(280.698985, 226.635395)"><g><path d="M 0.671875 0 L 0.671875 -5.625 L 4.203125 -5.625 L 4.203125 -4.46875 L 1.953125 -4.46875 L 1.953125 -3.0625 L 4 -3.0625 L 4 -1.9375 L 1.953125 -1.9375 L 1.953125 0 Z M 0.671875 0 "/></g></g></g><g fill="#2e2e2e" fill-opacity="1"><g transform="translate(211.261655, 234.007024)"><g><path d="M 0.671875 0 L 0.671875 -5.625 L 1.765625 -5.625 L 3.765625 -2.71875 L 5.765625 -5.625 L 6.84375 -5.625 L 6.84375 0 L 5.5625 0 L 5.5625 -3.390625 L 4.203125 -1.390625 L 3.3125 -1.390625 L 1.953125 -3.390625 L 1.953125 0 Z M 0.671875 0 "/></g></g></g><g fill="#2e2e2e" fill-opacity="1"><g transform="translate(220.726884, 234.007024)"><g><path d="M 0.671875 0 L 0.671875 -5.625 L 1.953125 -5.625 L 1.953125 0 Z M 0.671875 0 "/></g></g></g><g fill="#2e2e2e" fill-opacity="1"><g transform="translate(225.310715, 234.007024)"><g><path d="M 0.671875 0 L 0.671875 -5.625 L 3.078125 -5.625 C 3.503906 -5.625 3.875 -5.546875 4.1875 -5.390625 C 4.507812 -5.242188 4.753906 -5.023438 4.921875 -4.734375 C 5.097656 -4.441406 5.1875 -4.09375 5.1875 -3.6875 C 5.1875 -3.28125 5.09375 -2.925781 4.90625 -2.625 C 4.71875 -2.332031 4.457031 -2.109375 4.125 -1.953125 L 5.28125 0 L 3.8125 0 L 2.796875 -1.75 L 1.953125 -1.75 L 1.953125 0 Z M 1.9375 -2.828125 L 2.90625 -2.828125 C 3.226562 -2.828125 3.472656 -2.898438 3.640625 -3.046875 C 3.804688 -3.203125 3.890625 -3.414062 3.890625 -3.6875 C 3.890625 -3.957031 3.804688 -4.164062 3.640625 -4.3125 C 3.472656 -4.457031 3.226562 -4.53125 2.90625 -4.53125 L 1.9375 -4.53125 Z M 1.9375 -2.828125 "/></g></g></g><g fill="#2e2e2e" fill-opacity="1"><g transform="translate(232.926318, 234.007024)"><g><path d="M 0.078125 0 L 2.3125 -5.625 L 3.5625 -5.625 L 5.796875 0 L 4.4375 0 L 4.0625 -0.96875 L 1.8125 -0.96875 L 1.4375 0 Z M 2.15625 -1.984375 L 3.734375 -1.984375 L 2.9375 -4.046875 Z M 2.15625 -1.984375 "/></g></g></g><g fill="#2e2e2e" fill-opacity="1"><g transform="translate(240.751005, 234.007024)"><g><path d="M 3.265625 0.109375 C 2.691406 0.109375 2.1875 -0.015625 1.75 -0.265625 C 1.3125 -0.515625 0.96875 -0.859375 0.71875 -1.296875 C 0.46875 -1.734375 0.34375 -2.238281 0.34375 -2.8125 C 0.34375 -3.382812 0.46875 -3.890625 0.71875 -4.328125 C 0.96875 -4.773438 1.304688 -5.125 1.734375 -5.375 C 2.171875 -5.625 2.675781 -5.75 3.25 -5.75 C 3.726562 -5.75 4.164062 -5.65625 4.5625 -5.46875 C 4.957031 -5.289062 5.289062 -5.035156 5.5625 -4.703125 C 5.832031 -4.367188 6.019531 -3.976562 6.125 -3.53125 L 4.8125 -3.53125 C 4.707031 -3.832031 4.515625 -4.070312 4.234375 -4.25 C 3.960938 -4.4375 3.648438 -4.53125 3.296875 -4.53125 C 2.972656 -4.53125 2.6875 -4.457031 2.4375 -4.3125 C 2.1875 -4.164062 1.992188 -3.960938 1.859375 -3.703125 C 1.722656 -3.453125 1.65625 -3.15625 1.65625 -2.8125 C 1.65625 -2.476562 1.722656 -2.179688 1.859375 -1.921875 C 1.992188 -1.660156 2.1875 -1.457031 2.4375 -1.3125 C 2.6875 -1.175781 2.96875 -1.109375 3.28125 -1.109375 C 3.65625 -1.109375 3.976562 -1.203125 4.25 -1.390625 C 4.53125 -1.578125 4.734375 -1.832031 4.859375 -2.15625 L 6.171875 -2.15625 C 6.078125 -1.695312 5.894531 -1.296875 5.625 -0.953125 C 5.351562 -0.617188 5.015625 -0.359375 4.609375 -0.171875 C 4.203125 0.015625 3.753906 0.109375 3.265625 0.109375 Z M 3.265625 0.109375 "/></g></g></g><g fill="#2e2e2e" fill-opacity="1"><g transform="translate(249.194916, 234.007024)"><g><path d="M 0.671875 0 L 0.671875 -5.625 L 1.953125 -5.625 L 1.953125 -1.203125 L 4.421875 -1.203125 L 4.421875 0 Z M 0.671875 0 "/></g></g></g><g fill="#2e2e2e" fill-opacity="1"><g transform="translate(255.781165, 234.007024)"><g><path d="M 0.671875 0 L 0.671875 -5.625 L 4.375 -5.625 L 4.375 -4.546875 L 1.953125 -4.546875 L 1.953125 -3.390625 L 4.15625 -3.390625 L 4.15625 -2.3125 L 1.953125 -2.3125 L 1.953125 -1.09375 L 4.46875 -1.09375 L 4.46875 0 Z M 0.671875 0 "/></g></g></g><g fill="#2e2e2e" fill-opacity="1"><g transform="translate(262.608667, 234.007024)"><g><path d="M 2.640625 0.109375 C 2.171875 0.109375 1.765625 0.03125 1.421875 -0.125 C 1.078125 -0.28125 0.8125 -0.5 0.625 -0.78125 C 0.445312 -1.070312 0.359375 -1.410156 0.359375 -1.796875 L 1.609375 -1.796875 C 1.609375 -1.523438 1.703125 -1.3125 1.890625 -1.15625 C 2.078125 -1.007812 2.320312 -0.9375 2.625 -0.9375 C 2.894531 -0.9375 3.109375 -0.988281 3.265625 -1.09375 C 3.421875 -1.195312 3.5 -1.34375 3.5 -1.53125 C 3.5 -1.726562 3.40625 -1.890625 3.21875 -2.015625 C 3.03125 -2.140625 2.738281 -2.242188 2.34375 -2.328125 C 1.6875 -2.472656 1.195312 -2.6875 0.875 -2.96875 C 0.5625 -3.25 0.40625 -3.617188 0.40625 -4.078125 C 0.40625 -4.597656 0.59375 -5.003906 0.96875 -5.296875 C 1.34375 -5.597656 1.851562 -5.75 2.5 -5.75 C 2.945312 -5.75 3.332031 -5.671875 3.65625 -5.515625 C 3.988281 -5.359375 4.242188 -5.140625 4.421875 -4.859375 C 4.597656 -4.585938 4.6875 -4.265625 4.6875 -3.890625 L 3.453125 -3.890625 C 3.453125 -4.140625 3.367188 -4.335938 3.203125 -4.484375 C 3.046875 -4.628906 2.816406 -4.703125 2.515625 -4.703125 C 2.242188 -4.703125 2.03125 -4.648438 1.875 -4.546875 C 1.726562 -4.441406 1.65625 -4.296875 1.65625 -4.109375 C 1.65625 -3.929688 1.738281 -3.785156 1.90625 -3.671875 C 2.082031 -3.554688 2.382812 -3.445312 2.8125 -3.34375 C 3.507812 -3.175781 4.015625 -2.953125 4.328125 -2.671875 C 4.640625 -2.390625 4.796875 -2.023438 4.796875 -1.578125 C 4.796875 -1.046875 4.601562 -0.628906 4.21875 -0.328125 C 3.832031 -0.0351562 3.304688 0.109375 2.640625 0.109375 Z M 2.640625 0.109375 "/></g></g></g><g fill="#2e2e2e" fill-opacity="1"><g transform="translate(130.505577, 240.599272)"><g><path d="M 0.21875 0 L 1.21875 -4.9375 L 4.453125 -4.9375 L 4.265625 -3.984375 L 2.15625 -3.984375 L 1.953125 -2.96875 L 3.875 -2.96875 L 3.6875 -2.03125 L 1.765625 -2.03125 L 1.546875 -0.953125 L 3.734375 -0.953125 L 3.546875 0 Z M 0.21875 0 "/></g></g></g><g fill="#2e2e2e" fill-opacity="1"><g transform="translate(134.779973, 240.599272)"><g><path d="M 2 0.09375 C 1.570312 0.09375 1.21875 0.03125 0.9375 -0.09375 C 0.65625 -0.226562 0.453125 -0.421875 0.328125 -0.671875 C 0.210938 -0.921875 0.191406 -1.21875 0.265625 -1.5625 L 1.34375 -1.5625 C 1.3125 -1.332031 1.351562 -1.148438 1.46875 -1.015625 C 1.59375 -0.890625 1.796875 -0.828125 2.078125 -0.828125 C 2.316406 -0.828125 2.515625 -0.875 2.671875 -0.96875 C 2.828125 -1.0625 2.921875 -1.1875 2.953125 -1.34375 C 2.992188 -1.519531 2.953125 -1.664062 2.828125 -1.78125 C 2.703125 -1.894531 2.472656 -1.988281 2.140625 -2.0625 C 1.597656 -2.175781 1.195312 -2.363281 0.9375 -2.625 C 0.6875 -2.894531 0.609375 -3.253906 0.703125 -3.703125 C 0.773438 -4.109375 0.988281 -4.429688 1.34375 -4.671875 C 1.695312 -4.910156 2.15625 -5.03125 2.71875 -5.03125 C 3.320312 -5.03125 3.773438 -4.882812 4.078125 -4.59375 C 4.378906 -4.300781 4.492188 -3.910156 4.421875 -3.421875 L 3.328125 -3.421875 C 3.367188 -3.628906 3.332031 -3.796875 3.21875 -3.921875 C 3.101562 -4.054688 2.910156 -4.125 2.640625 -4.125 C 2.410156 -4.125 2.21875 -4.078125 2.0625 -3.984375 C 1.914062 -3.890625 1.828125 -3.769531 1.796875 -3.625 C 1.765625 -3.4375 1.8125 -3.285156 1.9375 -3.171875 C 2.0625 -3.066406 2.296875 -2.976562 2.640625 -2.90625 C 3.191406 -2.78125 3.585938 -2.578125 3.828125 -2.296875 C 4.078125 -2.023438 4.160156 -1.679688 4.078125 -1.265625 C 3.992188 -0.847656 3.769531 -0.515625 3.40625 -0.265625 C 3.050781 -0.0234375 2.582031 0.09375 2 0.09375 Z M 2 0.09375 "/></g></g></g><g fill="#2e2e2e" fill-opacity="1"><g transform="translate(139.286745, 240.599272)"><g><path d="M 1.390625 0 L 2.171875 -3.890625 L 0.625 -3.890625 L 0.828125 -4.9375 L 5.078125 -4.9375 L 4.859375 -3.890625 L 3.3125 -3.890625 L 2.53125 0 Z M 1.390625 0 "/></g></g></g><g fill="#2e2e2e" fill-opacity="1"><g transform="translate(143.955479, 240.599272)"><g><path d="M 0.21875 0 L 1.21875 -4.9375 L 3.125 -4.9375 C 3.632812 -4.9375 4.066406 -4.820312 4.421875 -4.59375 C 4.773438 -4.363281 5.023438 -4.054688 5.171875 -3.671875 C 5.316406 -3.285156 5.34375 -2.835938 5.25 -2.328125 C 5.15625 -1.859375 4.96875 -1.445312 4.6875 -1.09375 C 4.40625 -0.75 4.050781 -0.476562 3.625 -0.28125 C 3.195312 -0.09375 2.722656 0 2.203125 0 Z M 1.5625 -1.03125 L 2.328125 -1.03125 C 2.617188 -1.03125 2.890625 -1.085938 3.140625 -1.203125 C 3.390625 -1.328125 3.597656 -1.5 3.765625 -1.71875 C 3.941406 -1.9375 4.054688 -2.191406 4.109375 -2.484375 C 4.203125 -2.921875 4.140625 -3.265625 3.921875 -3.515625 C 3.710938 -3.773438 3.390625 -3.90625 2.953125 -3.90625 L 2.140625 -3.90625 Z M 1.5625 -1.03125 "/></g></g></g><g fill="#2e2e2e" fill-opacity="1"><g transform="translate(130.762309, 247.054238)"><g><path d="M 0 0 L 0.140625 -0.796875 L 2.515625 -2.53125 C 2.734375 -2.695312 2.894531 -2.847656 3 -2.984375 C 3.113281 -3.117188 3.179688 -3.257812 3.203125 -3.40625 C 3.242188 -3.613281 3.210938 -3.773438 3.109375 -3.890625 C 3.003906 -4.015625 2.847656 -4.078125 2.640625 -4.078125 C 2.410156 -4.078125 2.210938 -4.003906 2.046875 -3.859375 C 1.890625 -3.722656 1.78125 -3.53125 1.71875 -3.28125 L 0.6875 -3.28125 C 0.800781 -3.832031 1.035156 -4.257812 1.390625 -4.5625 C 1.742188 -4.875 2.191406 -5.03125 2.734375 -5.03125 C 3.097656 -5.03125 3.40625 -4.957031 3.65625 -4.8125 C 3.914062 -4.675781 4.101562 -4.484375 4.21875 -4.234375 C 4.332031 -3.984375 4.351562 -3.695312 4.28125 -3.375 C 4.21875 -3.082031 4.09375 -2.804688 3.90625 -2.546875 C 3.71875 -2.296875 3.4375 -2.039062 3.0625 -1.78125 L 2.015625 -0.984375 L 3.890625 -0.984375 L 3.703125 0 Z M 0 0 "/></g></g></g><g fill="#2e2e2e" fill-opacity="1"><g transform="translate(135.304289, 247.054238)"><g><path d="M 2.171875 0.09375 C 1.734375 0.09375 1.367188 -0.0078125 1.078125 -0.21875 C 0.785156 -0.4375 0.585938 -0.738281 0.484375 -1.125 C 0.378906 -1.519531 0.378906 -1.992188 0.484375 -2.546875 C 0.640625 -3.328125 0.9375 -3.9375 1.375 -4.375 C 1.820312 -4.8125 2.367188 -5.03125 3.015625 -5.03125 C 3.460938 -5.03125 3.832031 -4.921875 4.125 -4.703125 C 4.414062 -4.492188 4.613281 -4.191406 4.71875 -3.796875 C 4.820312 -3.398438 4.816406 -2.925781 4.703125 -2.375 C 4.546875 -1.601562 4.25 -1 3.8125 -0.5625 C 3.375 -0.125 2.828125 0.09375 2.171875 0.09375 Z M 1.578125 -2.4375 C 1.472656 -1.945312 1.476562 -1.566406 1.59375 -1.296875 C 1.71875 -1.035156 1.941406 -0.90625 2.265625 -0.90625 C 2.597656 -0.90625 2.878906 -1.039062 3.109375 -1.3125 C 3.347656 -1.59375 3.519531 -1.984375 3.625 -2.484375 C 3.71875 -2.984375 3.703125 -3.363281 3.578125 -3.625 C 3.460938 -3.894531 3.25 -4.03125 2.9375 -4.03125 C 2.601562 -4.03125 2.316406 -3.890625 2.078125 -3.609375 C 1.835938 -3.328125 1.671875 -2.9375 1.578125 -2.4375 Z M 1.578125 -2.4375 "/></g></g></g><g fill="#2e2e2e" fill-opacity="1"><g transform="translate(140.247653, 247.054238)"><g><path d="M 0 0 L 0.140625 -0.796875 L 2.515625 -2.53125 C 2.734375 -2.695312 2.894531 -2.847656 3 -2.984375 C 3.113281 -3.117188 3.179688 -3.257812 3.203125 -3.40625 C 3.242188 -3.613281 3.210938 -3.773438 3.109375 -3.890625 C 3.003906 -4.015625 2.847656 -4.078125 2.640625 -4.078125 C 2.410156 -4.078125 2.210938 -4.003906 2.046875 -3.859375 C 1.890625 -3.722656 1.78125 -3.53125 1.71875 -3.28125 L 0.6875 -3.28125 C 0.800781 -3.832031 1.035156 -4.257812 1.390625 -4.5625 C 1.742188 -4.875 2.191406 -5.03125 2.734375 -5.03125 C 3.097656 -5.03125 3.40625 -4.957031 3.65625 -4.8125 C 3.914062 -4.675781 4.101562 -4.484375 4.21875 -4.234375 C 4.332031 -3.984375 4.351562 -3.695312 4.28125 -3.375 C 4.21875 -3.082031 4.09375 -2.804688 3.90625 -2.546875 C 3.71875 -2.296875 3.4375 -2.039062 3.0625 -1.78125 L 2.015625 -0.984375 L 3.890625 -0.984375 L 3.703125 0 Z M 0 0 "/></g></g></g><g fill="#2e2e2e" fill-opacity="1"><g transform="translate(144.789633, 247.054238)"><g><path d="M 1.890625 0.09375 C 1.304688 0.09375 0.875 -0.0507812 0.59375 -0.34375 C 0.3125 -0.644531 0.210938 -1.046875 0.296875 -1.546875 L 1.359375 -1.546875 C 1.335938 -1.335938 1.378906 -1.175781 1.484375 -1.0625 C 1.597656 -0.945312 1.765625 -0.890625 1.984375 -0.890625 C 2.222656 -0.890625 2.425781 -0.953125 2.59375 -1.078125 C 2.757812 -1.210938 2.863281 -1.382812 2.90625 -1.59375 C 2.945312 -1.789062 2.910156 -1.945312 2.796875 -2.0625 C 2.691406 -2.1875 2.519531 -2.25 2.28125 -2.25 L 0.5 -2.25 L 1.296875 -4.9375 L 4.390625 -4.9375 L 4.203125 -3.96875 L 2.078125 -3.96875 L 1.828125 -3.125 L 2.59375 -3.125 C 2.925781 -3.125 3.203125 -3.050781 3.421875 -2.90625 C 3.648438 -2.757812 3.8125 -2.5625 3.90625 -2.3125 C 4.007812 -2.0625 4.023438 -1.769531 3.953125 -1.4375 C 3.898438 -1.125 3.773438 -0.847656 3.578125 -0.609375 C 3.390625 -0.378906 3.148438 -0.203125 2.859375 -0.078125 C 2.566406 0.0351562 2.242188 0.09375 1.890625 0.09375 Z M 1.890625 0.09375 "/></g></g></g></svg>